<?xml version="1.0" encoding="UTF-8"?><!DOCTYPE svg PUBLIC "-//W3C//DTD SVG 1.1//EN" "http://www.w3.org/Graphics/SVG/1.1/DTD/svg11.dtd"><svg xmlns="http://www.w3.org/2000/svg" xmlns:xlink="http://www.w3.org/1999/xlink"><defs>
        <linearGradient id="paint0_linear_1977_860" x1="3.5" y1="4" x2="11.4725" y2="24.2081" gradientUnits="userSpaceOnUse">
            <stop stop-color="#00D5C7"/>
            <stop offset="1" stop-color="#FFEE57"/>
        </linearGradient>
    </defs><symbol id="arrow" viewBox="0 0 24 24">
    <path d="M11.47 5.47a.75.75 0 0 1 1.06 0l6 6a.75.75 0 0 1 0 1.06l-6 6a.75.75 0 1 1-1.06-1.06l4.72-4.72H6a.75.75 0 0 1 0-1.5h10.19l-4.72-4.72a.75.75 0 0 1 0-1.06Z" clip-rule="evenodd"/>
</symbol><symbol id="checkMark" viewBox="0 0 16 16">
    <path d="M13.757 3.198a.75.75 0 0 1 .045 1.06l-6.89 7.5a.75.75 0 0 1-1.093.012l-3.61-3.75A.75.75 0 1 1 3.29 6.98l3.057 3.175 6.35-6.912a.75.75 0 0 1 1.06-.045Z"/>
</symbol><symbol id="cross" viewBox="0 0 20 20">
    <path d="M18.707 2.707a1 1 0 0 0-1.414-1.414L10 8.586 2.707 1.293a1 1 0 0 0-1.414 1.414L8.586 10l-7.293 7.293a1 1 0 1 0 1.414 1.414L10 11.414l7.293 7.293a1 1 0 0 0 1.414-1.414L11.414 10l7.293-7.293Z"/>
</symbol><symbol id="currency" viewBox="0 0 24 24">
    <circle cx="12" cy="12" r="12" fill="url(#paint0_linear_1977_860)"/>
    <path d="M11 4H13V6H15.9522V7.82227H10.2149V11.0801H15.5403V12.9023H10.2149V16.1777H16V18H13V20H11V18H8V6H11V4Z" fill="white"/>
    
</symbol><symbol id="email" viewBox="0 0 20 20">
    <path fill-rule="evenodd" d="M3 3.5h14a1.5 1.5 0 0 1 1.411.991l-7.163 4.776a2.25 2.25 0 0 1-2.496 0L1.589 4.49A1.5 1.5 0 0 1 3 3.5ZM1.5 6.235V15A1.5 1.5 0 0 0 3 16.5h14a1.5 1.5 0 0 0 1.5-1.5V6.235l-6.42 4.28c-1.26.84-2.9.84-4.16 0L1.5 6.235ZM0 5a3 3 0 0 1 3-3h14a3 3 0 0 1 3 3v10a3 3 0 0 1-3 3H3a3 3 0 0 1-3-3V5Z" clip-rule="evenodd"/>
</symbol><symbol id="exit" viewBox="0 0 20 20">
    <path d="M4.75.25A3.75 3.75 0 0 0 1 4v12a3.75 3.75 0 0 0 3.75 3.75h6A3.75 3.75 0 0 0 14.5 16v-1a.75.75 0 0 0-1.5 0v1a2.25 2.25 0 0 1-2.25 2.25h-6A2.25 2.25 0 0 1 2.5 16V4a2.25 2.25 0 0 1 2.25-2.25h6A2.25 2.25 0 0 1 13 4v1a.75.75 0 0 0 1.5 0V4A3.75 3.75 0 0 0 10.75.25h-6Zm5.03 7.28a.75.75 0 0 0-1.06-1.06l-3 3a.75.75 0 0 0 0 1.06l3 3a.75.75 0 0 0 1.06-1.06l-1.72-1.72h10.19a.75.75 0 0 0 0-1.5H8.06l1.72-1.72Z"/>
</symbol><symbol id="left" viewBox="0 0 8 14">
    <path d="M7.53 13.53a.75.75 0 0 1-1.06 0l-6-6a.75.75 0 0 1 0-1.06l6-6a.75.75 0 1 1 1.06 1.06L2.06 7l5.47 5.47a.75.75 0 0 1 0 1.06Z" clip-rule="evenodd"/>
</symbol><symbol id="leftArrow" viewBox="0 0 8 14">
    <path fill-rule="evenodd" clip-rule="evenodd" d="M7.53033 13.5303C7.23744 13.8232 6.76256 13.8232 6.46967 13.5303L0.46967 7.53033C0.176777 7.23744 0.176777 6.76256 0.46967 6.46967L6.46967 0.469669C6.76256 0.176776 7.23744 0.176776 7.53033 0.469669C7.82322 0.762563 7.82322 1.23744 7.53033 1.53033L2.06066 7L7.53033 12.4697C7.82322 12.7626 7.82322 13.2374 7.53033 13.5303Z"/>
</symbol><symbol id="map" viewBox="0 0 20 31">
    <path d="M11 19.95c5.053-.501 9-4.765 9-9.95 0-5.523-4.477-10-10-10S0 4.477 0 10c0 5.185 3.947 9.449 9 9.95V30a1 1 0 1 0 2 0V19.95Z"/>
    <circle cx="10" cy="10" r="5" fill="#fff"/>
</symbol><symbol id="phone" viewBox="0 0 20 20">
    <path fill-rule="evenodd" d="M4.532 1.613c-.318.224-.793.621-1.372 1.301-.67.788-1.075 1.725-1.056 2.667.045 2.18 1.055 5.23 4.07 8.246 3.087 3.087 6.149 4.081 8.318 4.088.895.003 1.783-.386 2.537-1.021.706-.595 1.121-1.09 1.355-1.423a.166.166 0 0 0-.05-.058l-3.316-2.654a.25.25 0 0 0-.333.019l-.633.633c-.862.862-2.249 1.094-3.32.36A17.111 17.111 0 0 1 6.23 9.27c-.738-1.077-.506-2.472.366-3.336l.625-.62a.25.25 0 0 0 .02-.333L4.58 1.656a.184.184 0 0 0-.048-.043Zm-2.514.329C2.686 1.157 3.264.668 3.696.368c.742-.516 1.608-.209 2.055.35l2.66 3.326a1.75 1.75 0 0 1-.134 2.336L7.652 7c-.413.409-.47 1.006-.185 1.421a15.611 15.611 0 0 0 4.111 4.112c.412.282 1.004.226 1.413-.183l.633-.633a1.75 1.75 0 0 1 2.33-.129l3.318 2.654c.569.455.87 1.331.35 2.076-.31.444-.817 1.041-1.626 1.723-.953.802-2.172 1.379-3.509 1.374-2.62-.008-6.047-1.201-9.373-4.527C1.855 11.629.658 8.22.604 5.61c-.028-1.395.569-2.676 1.414-3.669Z"/>
</symbol><symbol id="pin" viewBox="0 0 24 24">
    <path fill-rule="evenodd" d="M12 12a2 2 0 1 0 0-4 2 2 0 0 0 0 4Zm0 1.5a3.5 3.5 0 1 0 0-7 3.5 3.5 0 0 0 0 7Z" clip-rule="evenodd"/>
    <path fill-rule="evenodd" d="M16.119 16.129c1.363-1.818 2.381-3.97 2.381-6.324C18.5 6.357 15.625 3.5 12 3.5S5.5 6.357 5.5 9.805c0 2.354 1.018 4.506 2.381 6.324 1.36 1.813 2.986 3.19 4.002 3.956a.19.19 0 0 0 .117.043.19.19 0 0 0 .117-.043c1.016-.767 2.641-2.143 4.002-3.956Zm-3.099 5.153C15.176 19.655 20 15.392 20 9.805 20 5.495 16.418 2 12 2S4 5.494 4 9.805c0 5.587 4.824 9.85 6.98 11.477.61.46 1.43.46 2.04 0Z"/>
</symbol><symbol id="right" viewBox="0 0 8 14">
    <path d="M.47.47a.75.75 0 0 1 1.06 0l6 6a.75.75 0 0 1 0 1.06l-6 6a.75.75 0 0 1-1.06-1.06L5.94 7 .47 1.53a.75.75 0 0 1 0-1.06Z" clip-rule="evenodd"/>
</symbol><symbol id="rightArrow" viewBox="0 0 8 14">
    <path fill-rule="evenodd" clip-rule="evenodd" d="M0.46967 0.46967C0.762563 0.176777 1.23744 0.176777 1.53033 0.46967L7.53033 6.46967C7.82322 6.76256 7.82322 7.23744 7.53033 7.53033L1.53033 13.5303C1.23744 13.8232 0.762563 13.8232 0.46967 13.5303C0.176777 13.2374 0.176777 12.7626 0.46967 12.4697L5.93934 7L0.46967 1.53033C0.176777 1.23744 0.176777 0.762563 0.46967 0.46967Z"/>
</symbol></svg>