<svg xmlns="http://www.w3.org/2000/svg" viewBox="0 0 20 20">
    <path  fill-rule="evenodd"
          d="M4.532 1.613c-.318.224-.793.621-1.372 1.301-.67.788-1.075 1.725-1.056 2.667.045 2.18 1.055 5.23 4.07 8.246 3.087 3.087 6.149 4.081 8.318 4.088.895.003 1.783-.386 2.537-1.021.706-.595 1.121-1.09 1.355-1.423a.166.166 0 0 0-.05-.058l-3.316-2.654a.25.25 0 0 0-.333.019l-.633.633c-.862.862-2.249 1.094-3.32.36A17.111 17.111 0 0 1 6.23 9.27c-.738-1.077-.506-2.472.366-3.336l.625-.62a.25.25 0 0 0 .02-.333L4.58 1.656a.184.184 0 0 0-.048-.043Zm-2.514.329C2.686 1.157 3.264.668 3.696.368c.742-.516 1.608-.209 2.055.35l2.66 3.326a1.75 1.75 0 0 1-.134 2.336L7.652 7c-.413.409-.47 1.006-.185 1.421a15.611 15.611 0 0 0 4.111 4.112c.412.282 1.004.226 1.413-.183l.633-.633a1.75 1.75 0 0 1 2.33-.129l3.318 2.654c.569.455.87 1.331.35 2.076-.31.444-.817 1.041-1.626 1.723-.953.802-2.172 1.379-3.509 1.374-2.62-.008-6.047-1.201-9.373-4.527C1.855 11.629.658 8.22.604 5.61c-.028-1.395.569-2.676 1.414-3.669Z"
          />
</svg>